<svg xmlns="http://www.w3.org/2000/svg" xmlns:xlink="http://www.w3.org/1999/xlink" viewBox="0,0,256,256" width="48px" height="48px"><g fill="#ffffff" fill-rule="nonzero" stroke="none" stroke-width="1" stroke-linecap="butt" stroke-linejoin="miter" stroke-miterlimit="10" stroke-dasharray="" stroke-dashoffset="0" font-family="none" font-weight="none" font-size="none" text-anchor="none" style="mix-blend-mode: normal"><g transform="scale(5.33333,5.33333)"><path d="M38.29297,6.99609c-0.154,0 -0.3108,0.01025 -0.4668,0.03125c-3.541,0.474 -6.20631,2.32239 -8.19531,4.40039c-1.723,-0.271 -3.58786,-0.42773 -5.63086,-0.42773c-2.32,0 -4.40741,0.20378 -6.31641,0.55078c-1.995,-2.12 -4.96903,-4.03848 -8.58203,-4.52148c-0.153,-0.02 -0.30408,-0.0293 -0.45508,-0.0293c-1.498,0 -2.87005,0.98175 -3.24805,2.46875c-0.85,3.348 -0.20836,6.48714 0.68164,8.86914c-2.085,2.762 -3.08008,6.16139 -3.08008,9.90039c0,6.751 5,14.76172 17,14.76172h1.5h5h1.5c11,0 17,-7.38072 17,-14.76172c0,-4.06 -1.16572,-7.72656 -3.63672,-10.60156c0.727,-2.257 0.93206,-5.17422 0.16406,-8.19922c-0.377,-1.483 -1.74038,-2.44141 -3.23437,-2.44141zM38.29297,9.99609c0.139,0 0.29717,0.06864 0.32617,0.18164c0.559,2.2 0.51867,4.58306 -0.11133,6.53906l-0.17187,0.5332c-0.213,0.663 -0.06728,1.38997 0.38672,1.91797l0.36523,0.42383c1.933,2.247 2.91211,5.15548 2.91211,8.64648c0,2.11138 -0.51296,3.94899 -1.47852,5.51563c0.30436,-1.0414 0.47852,-2.12924 0.47852,-3.25391c0,-2.8 -0.85451,-5.19504 -2.39062,-6.88477c-1.53611,-1.68972 -3.73437,-2.61523 -6.10937,-2.61523c-2.5,0 -5.30194,1 -8.5,1c-3.21429,0 -6,-1 -8.5,-1c-2.375,0 -4.57326,0.92551 -6.10937,2.61523c-1.53611,1.68973 -2.39062,4.08477 -2.39062,6.88477c0,1.28605 0.17531,2.55121 0.52539,3.75391c-1.52277,-2.31596 -1.52539,-4.73861 -1.52539,-6.01562c0,-3.196 0.83356,-5.91775 2.47656,-8.09375l0.33008,-0.43945c0.412,-0.546 0.51734,-1.2643 0.27734,-1.9043l-0.19141,-0.51367c-0.941,-2.52 -1.13794,-4.90208 -0.58594,-7.08008c0.033,-0.13 0.19884,-0.20703 0.33984,-0.20703c0.019,0 0.03764,0.00091 0.05664,0.00391c3.389,0.453 5.71192,2.45156 6.79492,3.60156l0.37305,0.39648c0.464,0.494 1.14745,0.71866 1.81445,0.59766l0.53516,-0.09766c1.858,-0.338 3.7483,-0.50195 5.7793,-0.50195c1.804,0 3.49402,0.12763 5.16602,0.39063l0.51563,0.08203c0.647,0.102 1.30286,-0.12075 1.75586,-0.59375l0.36133,-0.37695c1.95,-2.037 4.05178,-3.182 6.42578,-3.5c0.023,-0.003 0.04636,-0.00586 0.06836,-0.00586zM15.5,24c1.5,0 4.71429,1 8.5,1c3.77194,0 7,-1 8.5,-1c1.625,0 2.92674,0.57449 3.89063,1.63477c0.96389,1.06027 1.60938,2.66523 1.60938,4.86523c0,4.00541 -2.4885,7.50002 -7.03906,8.87305c-2.05742,0.40727 -4.37137,0.62695 -6.96094,0.62695c-2.78432,0 -5.13544,-0.21318 -7.125,-0.58203c-1.79291,-0.4988 -3.18637,-1.28444 -4.22266,-2.25977c-1.79631,-1.69064 -2.65234,-3.99154 -2.65234,-6.6582c0,-2.2 0.64549,-3.80496 1.60938,-4.86523c0.96389,-1.06028 2.26563,-1.63477 3.89063,-1.63477zM16.5,28c-1.38071,0 -2.5,1.34315 -2.5,3c0,1.65685 1.11929,3 2.5,3c1.38071,0 2.5,-1.34315 2.5,-3c0,-1.65685 -1.11929,-3 -2.5,-3zM31.5,28c-1.38071,0 -2.5,1.34315 -2.5,3c0,1.65685 1.11929,3 2.5,3c1.38071,0 2.5,-1.34315 2.5,-3c0,-1.65685 -1.11929,-3 -2.5,-3z"></path></g></g></svg>