<svg xmlns="http://www.w3.org/2000/svg" xmlns:xlink="http://www.w3.org/1999/xlink" viewBox="0,0,256,256" width="32px" height="32px"><g fill="#ffffff" fill-rule="nonzero" stroke="none" stroke-width="1" stroke-linecap="butt" stroke-linejoin="miter" stroke-miterlimit="10" stroke-dasharray="" stroke-dashoffset="0" font-family="none" font-weight="none" font-size="none" text-anchor="none" style="mix-blend-mode: normal"><g transform="scale(8,8)"><path d="M5,5v22h22v-22zM7,7h18v18h-18zM9,11.36914v8.61133h4.17969c1.56,-0.01 3.03125,-0.75977 3.03125,-2.50977c0,-1.09 -0.52031,-2.01055 -1.57031,-2.31055c0.77,-0.38 1.16992,-0.80016 1.16992,-1.66016c0,-1.72 -1.27,-2.13086 -2.75,-2.13086zM18.14063,12v0.84961h3.47852v-0.84961zM10.90039,12.68945h1.7793c0.67,0 1.29101,0.19047 1.29101,0.98047c0,0.73 -0.48016,1.0293 -1.16016,1.0293h-1.91016zM19.96094,13.42969c-1.89,0 -3.18164,1.41101 -3.18164,3.29102c0,1.94 1.21164,3.2793 3.18164,3.2793c1.49,0 2.45992,-0.66961 2.91992,-2.09961h-1.51172c-0.17,0.53 -0.82961,0.81055 -1.34961,0.81055c-1.01,0 -1.5293,-0.59008 -1.5293,-1.58008h4.49023c0.01,-0.1 0.01953,-0.22008 0.01953,-0.33008c0,-1.84 -1.08906,-3.37109 -3.03906,-3.37109zM19.90039,14.71094c0.87,0 1.29914,0.50984 1.36914,1.33984h-2.7793c0.05,-0.82 0.59016,-1.33984 1.41016,-1.33984zM10.89063,16.13086h2.07031c0.83,0 1.35937,0.34828 1.35937,1.23828c0,0.86 -0.63039,1.13086 -1.40039,1.13086h-2.0293z"></path></g></g></svg>